<svg version="1.1" id="Layer_1" xmlns="http://www.w3.org/2000/svg" xmlns:xlink="http://www.w3.org/1999/xlink" x="0px" y="0px"
	 width="100%" viewBox="0 0 3000 931" enable-background="new 0 0 3000 931" xml:space="preserve">
<path fill="#000000" opacity="1.000000" stroke="none" 
	d="
M2122.000000,932.000000 
	C1414.666626,932.000000 707.833313,932.000000 1.000000,932.000000 
	C1.000000,621.666687 1.000000,311.333344 1.000000,1.000000 
	C1001.000000,1.000000 2001.000000,1.000000 3001.000000,1.000000 
	C3001.000000,311.333344 3001.000000,621.666687 3001.000000,932.000000 
	C2708.166748,932.000000 2415.333252,932.000000 2122.000000,932.000000 
M1042.766724,360.297272 
	C1000.715088,445.295288 958.663574,530.293274 916.458984,615.600525 
	C917.894226,615.771301 918.387939,615.881287 918.881592,615.881470 
	C956.702942,615.892883 994.524597,615.835022 1032.345215,616.003235 
	C1035.712524,616.018188 1036.570312,614.206726 1037.647461,611.921753 
	C1044.168335,598.088867 1050.790771,584.302917 1057.185425,570.412048 
	C1058.638794,567.255005 1060.494385,566.208130 1063.991089,566.215698 
	C1119.140137,566.334961 1174.289551,566.336365 1229.438477,566.213379 
	C1232.984131,566.205505 1234.734863,567.339478 1236.208740,570.493042 
	C1242.612427,584.194519 1249.376099,597.727783 1255.776245,611.430908 
	C1257.301758,614.697205 1259.062988,616.008484 1262.826904,615.993896 
	C1302.313843,615.840759 1341.801636,615.902100 1381.289185,615.888977 
	C1382.860474,615.888489 1384.431885,615.736938 1386.614136,615.624207 
	C1385.170288,612.694946 1384.065063,610.329163 1382.855835,608.017761 
	C1361.275269,566.763306 1339.665283,525.524170 1318.096069,484.263824 
	C1288.207031,427.088684 1258.332031,369.906097 1228.517456,312.692169 
	C1227.067139,309.908783 1225.515869,308.596863 1222.084717,308.606354 
	C1172.267456,308.743652 1122.449585,308.739990 1072.632324,308.612915 
	C1069.261353,308.604309 1067.609497,309.717773 1066.196533,312.636139 
	C1058.589966,328.345673 1050.798950,343.965912 1042.766724,360.297272 
M2076.011963,560.716919 
	C2074.361084,560.503723 2072.704590,560.327393 2071.060303,560.071411 
	C2058.753906,558.155762 2046.993896,554.863892 2037.469238,546.236328 
	C2030.082886,539.545837 2025.966064,531.212952 2024.753906,520.867188 
	C2105.376953,520.867188 2185.455566,520.867188 2265.003906,520.867188 
	C2265.003906,510.731415 2265.616943,500.915741 2264.891846,491.199890 
	C2262.438721,458.327820 2247.885010,432.225067 2220.167725,413.859711 
	C2195.263672,397.358368 2166.965576,391.188080 2137.967529,389.400909 
	C2109.124268,387.623291 2080.101562,387.622833 2051.195312,388.346649 
	C2026.029907,388.976776 2001.259888,393.504425 1977.762329,403.157898 
	C1951.998657,413.742279 1931.807617,430.337250 1921.184937,456.920135 
	C1914.169189,474.477112 1913.615112,492.878113 1913.980591,511.426941 
	C1914.763794,551.178955 1932.692749,580.855225 1967.269165,599.930847 
	C1992.144409,613.654358 2019.687866,618.949158 2047.709839,620.715393 
	C2068.951904,622.054382 2090.306396,621.996094 2111.608398,621.915833 
	C2142.173096,621.800720 2172.281982,617.974182 2201.601074,608.943604 
	C2224.420654,601.914856 2243.494141,589.797302 2256.405029,569.083191 
	C2262.972168,558.546753 2265.111084,547.081299 2264.910156,534.874878 
	C2227.714111,534.874878 2190.951416,534.874878 2154.222900,534.874878 
	C2150.350342,545.651794 2142.177246,551.476929 2132.113770,555.164795 
	C2114.206299,561.727112 2095.625000,561.916260 2076.011963,560.716919 
M1683.546997,470.994171 
	C1690.676392,467.576782 1697.496460,462.772369 1705.014160,461.095337 
	C1714.276855,459.029053 1724.180420,458.587891 1733.701782,459.169037 
	C1759.476562,460.742401 1776.553833,478.399261 1776.976318,504.285126 
	C1777.549927,539.440674 1777.221069,574.610962 1777.278687,609.774902 
	C1777.281738,611.686768 1777.279053,613.598633 1777.279053,615.466797 
	C1815.367920,615.466797 1852.634033,615.466797 1890.136353,615.466797 
	C1890.214600,614.089233 1890.335693,612.950378 1890.335938,611.811462 
	C1890.345459,564.645081 1890.362183,517.478699 1890.304443,470.312408 
	C1890.300415,467.002594 1890.055786,463.627228 1889.384644,460.394104 
	C1882.365601,426.583038 1861.631226,405.261932 1829.099854,395.048218 
	C1804.520264,387.331055 1779.362549,386.838440 1754.021240,390.041901 
	C1721.317627,394.175995 1692.102783,406.106812 1667.798340,428.910034 
	C1666.912354,429.741302 1665.903442,430.441528 1664.175293,431.823914 
	C1664.175293,418.374603 1664.175293,405.935577 1664.175293,393.613159 
	C1626.805054,393.613159 1589.901245,393.613159 1552.895996,393.613159 
	C1552.895996,467.720947 1552.895996,541.494446 1552.895996,615.401611 
	C1590.354614,615.401611 1627.572632,615.401611 1665.001709,615.401611 
	C1665.001709,613.257629 1665.001709,611.432373 1665.001709,609.607117 
	C1665.001709,578.107300 1664.981079,546.607544 1665.009766,515.107727 
	C1665.025391,498.107727 1669.404419,482.870605 1683.546997,470.994171 
M692.500183,393.279144 
	C666.385193,393.279144 640.270203,393.279144 613.928711,393.279144 
	C613.928711,467.589386 613.928711,541.480225 613.928711,615.468933 
	C651.433411,615.468933 688.665039,615.468933 726.343933,615.468933 
	C726.343933,613.420410 726.343872,611.619507 726.343872,609.818665 
	C726.343811,574.832031 726.273865,539.845093 726.416931,504.859070 
	C726.439209,499.410034 726.974976,493.871704 728.059692,488.534485 
	C732.324036,467.551819 747.987427,455.431061 769.603760,456.002045 
	C790.013977,456.541168 803.181580,468.760925 806.189392,490.342987 
	C807.049316,496.513306 807.101318,502.796265 807.524963,509.044556 
	C843.952087,509.044556 880.204529,509.044556 916.673157,509.044556 
	C916.797668,488.125458 917.322205,467.512787 910.977722,447.464447 
	C901.682861,418.092834 883.264832,398.291016 852.509155,391.445251 
	C837.125427,388.021057 821.502808,387.152100 805.868591,389.061096 
	C775.072388,392.821350 748.270020,404.472900 728.502380,429.468506 
	C727.850220,430.293243 727.176819,431.101166 725.544678,433.107605 
	C725.544678,418.907196 725.544678,406.217133 725.544678,393.279175 
	C714.464111,393.279175 703.982178,393.279175 692.500183,393.279144 
M2401.721924,507.506348 
	C2402.480469,500.092285 2402.345215,492.449860 2404.170166,485.308289 
	C2409.039307,466.252380 2423.978516,455.685822 2444.115967,456.002319 
	C2463.405518,456.305481 2476.141846,466.364227 2480.503418,485.780884 
	C2482.189697,493.287598 2482.183105,501.174622 2482.961426,509.026184 
	C2519.029053,509.026184 2555.260498,509.026184 2591.664307,509.026184 
	C2591.754395,489.090393 2592.643555,469.437592 2586.963867,450.266083 
	C2578.770752,422.610321 2563.124023,401.879333 2534.360352,393.233124 
	C2521.002686,389.217987 2507.284424,387.871155 2493.417969,388.315796 
	C2456.952637,389.485016 2425.477295,401.418091 2402.407471,431.139008 
	C2402.149658,431.471436 2401.768555,431.708496 2400.590088,432.733673 
	C2400.590088,419.062714 2400.590088,406.255554 2400.590088,393.636871 
	C2362.965576,393.636871 2326.072754,393.636871 2289.212646,393.636871 
	C2289.212646,467.749146 2289.212646,541.502686 2289.212646,615.322754 
	C2326.778564,615.322754 2364.128418,615.322754 2401.721924,615.322754 
	C2401.721924,579.451050 2401.721924,543.977722 2401.721924,507.506348 
M390.660248,449.495422 
	C390.660248,453.582611 390.660248,457.669800 390.660248,462.183167 
	C405.159241,462.183167 419.066132,462.183167 433.100281,462.183167 
	C433.100281,493.949402 432.926422,525.265381 433.174500,556.577881 
	C433.296478,571.976990 436.264954,586.785095 446.757172,598.881897 
	C457.843628,611.663757 472.809845,615.680298 488.920746,615.820068 
	C520.243164,616.091980 551.569580,615.903076 582.894348,615.889038 
	C584.313110,615.888428 585.731750,615.730164 587.016113,615.653381 
	C587.016113,592.421509 587.016113,569.676697 587.016113,546.297791 
	C577.564270,546.297791 568.407837,546.718140 559.306946,546.187012 
	C548.880676,545.578552 545.700073,541.910828 544.990540,531.502747 
	C544.899963,530.174927 544.903625,528.839111 544.903320,527.506958 
	C544.898254,507.179169 544.895386,486.851410 544.909241,466.523621 
	C544.910217,465.091553 545.045410,463.659546 545.138428,461.829132 
	C559.389404,461.829132 573.309265,461.829132 587.094727,461.829132 
	C587.094727,438.967773 587.094727,416.529144 587.094727,393.581451 
	C572.955994,393.581451 559.053101,393.581451 544.761047,393.581451 
	C544.761047,371.816772 544.761047,350.560364 544.761047,329.365234 
	C507.318787,329.365234 470.279510,329.365234 432.801819,329.365234 
	C432.801819,350.955750 432.801819,372.182190 432.801819,393.773682 
	C418.605408,393.773682 404.845917,393.773682 390.660217,393.773682 
	C390.660217,412.262329 390.660217,430.379028 390.660248,449.495422 
M1399.266724,313.683716 
	C1399.266724,414.258789 1399.266724,514.833862 1399.266724,615.514160 
	C1438.695801,615.514160 1477.545410,615.514160 1516.347290,615.514160 
	C1516.347290,513.105835 1516.347290,411.085510 1516.347290,309.188110 
	C1515.647461,308.960693 1515.332886,308.769043 1515.017944,308.768768 
	C1477.533447,308.736755 1440.048828,308.749786 1402.564575,308.645996 
	C1399.310547,308.636993 1399.075562,310.331024 1399.266724,313.683716 
z"/>
<path fill="#3B82F5" opacity="1.000000" stroke="none" 
	d="
M1042.919189,359.957092 
	C1050.798950,343.965912 1058.589966,328.345673 1066.196533,312.636139 
	C1067.609497,309.717773 1069.261353,308.604309 1072.632324,308.612915 
	C1122.449585,308.739990 1172.267456,308.743652 1222.084717,308.606354 
	C1225.515869,308.596863 1227.067139,309.908783 1228.517456,312.692169 
	C1258.332031,369.906097 1288.207031,427.088684 1318.096069,484.263824 
	C1339.665283,525.524170 1361.275269,566.763306 1382.855835,608.017761 
	C1384.065063,610.329163 1385.170288,612.694946 1386.614136,615.624207 
	C1384.431885,615.736938 1382.860474,615.888489 1381.289185,615.888977 
	C1341.801636,615.902100 1302.313843,615.840759 1262.826904,615.993896 
	C1259.062988,616.008484 1257.301758,614.697205 1255.776245,611.430908 
	C1249.376099,597.727783 1242.612427,584.194519 1236.208740,570.493042 
	C1234.734863,567.339478 1232.984131,566.205505 1229.438477,566.213379 
	C1174.289551,566.336365 1119.140137,566.334961 1063.991089,566.215698 
	C1060.494385,566.208130 1058.638794,567.255005 1057.185425,570.412048 
	C1050.790771,584.302917 1044.168335,598.088867 1037.647461,611.921753 
	C1036.570312,614.206726 1035.712524,616.018188 1032.345215,616.003235 
	C994.524597,615.835022 956.702942,615.892883 918.881592,615.881470 
	C918.387939,615.881287 917.894226,615.771301 916.458984,615.600525 
	C958.663574,530.293274 1000.715088,445.295288 1042.919189,359.957092 
M1103.615234,489.102661 
	C1134.299561,489.102661 1164.983765,489.102661 1196.301636,489.102661 
	C1179.121216,453.917603 1162.364746,419.600708 1145.237305,384.523987 
	C1128.530518,419.583679 1112.130127,454.000244 1095.402954,489.102722 
	C1098.409790,489.102722 1100.532349,489.102722 1103.615234,489.102661 
z"/>
<path fill="#FEFEFE" opacity="1.000000" stroke="none" 
	d="
M2076.467529,560.795898 
	C2095.625000,561.916260 2114.206299,561.727112 2132.113770,555.164795 
	C2142.177246,551.476929 2150.350342,545.651794 2154.222900,534.874878 
	C2190.951416,534.874878 2227.714111,534.874878 2264.910156,534.874878 
	C2265.111084,547.081299 2262.972168,558.546753 2256.405029,569.083191 
	C2243.494141,589.797302 2224.420654,601.914856 2201.601074,608.943604 
	C2172.281982,617.974182 2142.173096,621.800720 2111.608398,621.915833 
	C2090.306396,621.996094 2068.951904,622.054382 2047.709839,620.715393 
	C2019.687866,618.949158 1992.144409,613.654358 1967.269165,599.930847 
	C1932.692749,580.855225 1914.763794,551.178955 1913.980591,511.426941 
	C1913.615112,492.878113 1914.169189,474.477112 1921.184937,456.920135 
	C1931.807617,430.337250 1951.998657,413.742279 1977.762329,403.157898 
	C2001.259888,393.504425 2026.029907,388.976776 2051.195312,388.346649 
	C2080.101562,387.622833 2109.124268,387.623291 2137.967529,389.400909 
	C2166.965576,391.188080 2195.263672,397.358368 2220.167725,413.859711 
	C2247.885010,432.225067 2262.438721,458.327820 2264.891846,491.199890 
	C2265.616943,500.915741 2265.003906,510.731415 2265.003906,520.867188 
	C2185.455566,520.867188 2105.376953,520.867188 2024.753906,520.867188 
	C2025.966064,531.212952 2030.082886,539.545837 2037.469238,546.236328 
	C2046.993896,554.863892 2058.753906,558.155762 2071.060303,560.071411 
	C2072.704590,560.327393 2074.361084,560.503723 2076.467529,560.795898 
M2118.265137,445.052338 
	C2103.806152,442.062073 2089.202148,441.621429 2074.565186,443.022034 
	C2062.734863,444.154114 2051.244873,446.713379 2041.245605,453.673676 
	C2033.718262,458.913361 2028.428101,465.753693 2026.143921,474.837402 
	C2068.628174,474.837402 2110.681641,474.837402 2152.893555,474.837402 
	C2151.098877,466.611389 2147.372803,459.551544 2140.551025,455.321960 
	C2133.878662,451.185394 2126.273438,448.553406 2118.265137,445.052338 
z"/>
<path fill="#FEFEFE" opacity="1.000000" stroke="none" 
	d="
M1683.268311,471.217896 
	C1669.404419,482.870605 1665.025391,498.107727 1665.009766,515.107727 
	C1664.981079,546.607544 1665.001709,578.107300 1665.001709,609.607117 
	C1665.001709,611.432373 1665.001709,613.257629 1665.001709,615.401611 
	C1627.572632,615.401611 1590.354614,615.401611 1552.895996,615.401611 
	C1552.895996,541.494446 1552.895996,467.720947 1552.895996,393.613159 
	C1589.901245,393.613159 1626.805054,393.613159 1664.175293,393.613159 
	C1664.175293,405.935577 1664.175293,418.374603 1664.175293,431.823914 
	C1665.903442,430.441528 1666.912354,429.741302 1667.798340,428.910034 
	C1692.102783,406.106812 1721.317627,394.175995 1754.021240,390.041901 
	C1779.362549,386.838440 1804.520264,387.331055 1829.099854,395.048218 
	C1861.631226,405.261932 1882.365601,426.583038 1889.384644,460.394104 
	C1890.055786,463.627228 1890.300415,467.002594 1890.304443,470.312408 
	C1890.362183,517.478699 1890.345459,564.645081 1890.335938,611.811462 
	C1890.335693,612.950378 1890.214600,614.089233 1890.136353,615.466797 
	C1852.634033,615.466797 1815.367920,615.466797 1777.279053,615.466797 
	C1777.279053,613.598633 1777.281738,611.686768 1777.278687,609.774902 
	C1777.221069,574.610962 1777.549927,539.440674 1776.976318,504.285126 
	C1776.553833,478.399261 1759.476562,460.742401 1733.701782,459.169037 
	C1724.180420,458.587891 1714.276855,459.029053 1705.014160,461.095337 
	C1697.496460,462.772369 1690.676392,467.576782 1683.268311,471.217896 
z"/>
<path fill="#FEFEFE" opacity="1.000000" stroke="none" 
	d="
M693.000244,393.279175 
	C703.982178,393.279175 714.464111,393.279175 725.544678,393.279175 
	C725.544678,406.217133 725.544678,418.907196 725.544678,433.107605 
	C727.176819,431.101166 727.850220,430.293243 728.502380,429.468506 
	C748.270020,404.472900 775.072388,392.821350 805.868591,389.061096 
	C821.502808,387.152100 837.125427,388.021057 852.509155,391.445251 
	C883.264832,398.291016 901.682861,418.092834 910.977722,447.464447 
	C917.322205,467.512787 916.797668,488.125458 916.673157,509.044556 
	C880.204529,509.044556 843.952087,509.044556 807.524963,509.044556 
	C807.101318,502.796265 807.049316,496.513306 806.189392,490.342987 
	C803.181580,468.760925 790.013977,456.541168 769.603760,456.002045 
	C747.987427,455.431061 732.324036,467.551819 728.059692,488.534485 
	C726.974976,493.871704 726.439209,499.410034 726.416931,504.859070 
	C726.273865,539.845093 726.343811,574.832031 726.343872,609.818665 
	C726.343872,611.619507 726.343933,613.420410 726.343933,615.468933 
	C688.665039,615.468933 651.433411,615.468933 613.928711,615.468933 
	C613.928711,541.480225 613.928711,467.589386 613.928711,393.279144 
	C640.270203,393.279144 666.385193,393.279144 693.000244,393.279175 
z"/>
<path fill="#FEFEFE" opacity="1.000000" stroke="none" 
	d="
M2401.721924,508.005341 
	C2401.721924,543.977722 2401.721924,579.451050 2401.721924,615.322754 
	C2364.128418,615.322754 2326.778564,615.322754 2289.212646,615.322754 
	C2289.212646,541.502686 2289.212646,467.749146 2289.212646,393.636871 
	C2326.072754,393.636871 2362.965576,393.636871 2400.590088,393.636871 
	C2400.590088,406.255554 2400.590088,419.062714 2400.590088,432.733673 
	C2401.768555,431.708496 2402.149658,431.471436 2402.407471,431.139008 
	C2425.477295,401.418091 2456.952637,389.485016 2493.417969,388.315796 
	C2507.284424,387.871155 2521.002686,389.217987 2534.360352,393.233124 
	C2563.124023,401.879333 2578.770752,422.610321 2586.963867,450.266083 
	C2592.643555,469.437592 2591.754395,489.090393 2591.664307,509.026184 
	C2555.260498,509.026184 2519.029053,509.026184 2482.961426,509.026184 
	C2482.183105,501.174622 2482.189697,493.287598 2480.503418,485.780884 
	C2476.141846,466.364227 2463.405518,456.305481 2444.115967,456.002319 
	C2423.978516,455.685822 2409.039307,466.252380 2404.170166,485.308289 
	C2402.345215,492.449860 2402.480469,500.092285 2401.721924,508.005341 
z"/>
<path fill="#FEFEFE" opacity="1.000000" stroke="none" 
	d="
M390.660217,448.995575 
	C390.660217,430.379028 390.660217,412.262329 390.660217,393.773682 
	C404.845917,393.773682 418.605408,393.773682 432.801819,393.773682 
	C432.801819,372.182190 432.801819,350.955750 432.801819,329.365234 
	C470.279510,329.365234 507.318787,329.365234 544.761047,329.365234 
	C544.761047,350.560364 544.761047,371.816772 544.761047,393.581451 
	C559.053101,393.581451 572.955994,393.581451 587.094727,393.581451 
	C587.094727,416.529144 587.094727,438.967773 587.094727,461.829132 
	C573.309265,461.829132 559.389404,461.829132 545.138428,461.829132 
	C545.045410,463.659546 544.910217,465.091553 544.909241,466.523621 
	C544.895386,486.851410 544.898254,507.179169 544.903320,527.506958 
	C544.903625,528.839111 544.899963,530.174927 544.990540,531.502747 
	C545.700073,541.910828 548.880676,545.578552 559.306946,546.187012 
	C568.407837,546.718140 577.564270,546.297791 587.016113,546.297791 
	C587.016113,569.676697 587.016113,592.421509 587.016113,615.653381 
	C585.731750,615.730164 584.313110,615.888428 582.894348,615.889038 
	C551.569580,615.903076 520.243164,616.091980 488.920746,615.820068 
	C472.809845,615.680298 457.843628,611.663757 446.757172,598.881897 
	C436.264954,586.785095 433.296478,571.976990 433.174500,556.577881 
	C432.926422,525.265381 433.100281,493.949402 433.100281,462.183167 
	C419.066132,462.183167 405.159241,462.183167 390.660248,462.183167 
	C390.660248,457.669800 390.660248,453.582611 390.660217,448.995575 
z"/>
<path fill="#3B81F4" opacity="1.000000" stroke="none" 
	d="
M1399.266968,313.207031 
	C1399.075562,310.331024 1399.310547,308.636993 1402.564575,308.645996 
	C1440.048828,308.749786 1477.533447,308.736755 1515.017944,308.768768 
	C1515.332886,308.769043 1515.647461,308.960693 1516.347290,309.188110 
	C1516.347290,411.085510 1516.347290,513.105835 1516.347290,615.514160 
	C1477.545410,615.514160 1438.695801,615.514160 1399.266724,615.514160 
	C1399.266724,514.833862 1399.266724,414.258789 1399.266968,313.207031 
z"/>
<path fill="#000001" opacity="1.000000" stroke="none" 
	d="
M1103.135010,489.102692 
	C1100.532349,489.102722 1098.409790,489.102722 1095.402954,489.102722 
	C1112.130127,454.000244 1128.530518,419.583679 1145.237305,384.523987 
	C1162.364746,419.600708 1179.121216,453.917603 1196.301636,489.102661 
	C1164.983765,489.102661 1134.299561,489.102661 1103.135010,489.102692 
z"/>
<path fill="#010101" opacity="1.000000" stroke="none" 
	d="
M2118.671387,445.156647 
	C2126.273438,448.553406 2133.878662,451.185394 2140.551025,455.321960 
	C2147.372803,459.551544 2151.098877,466.611389 2152.893555,474.837402 
	C2110.681641,474.837402 2068.628174,474.837402 2026.143921,474.837402 
	C2028.428101,465.753693 2033.718262,458.913361 2041.245605,453.673676 
	C2051.244873,446.713379 2062.734863,444.154114 2074.565186,443.022034 
	C2089.202148,441.621429 2103.806152,442.062073 2118.671387,445.156647 
z"/>
</svg>